<svg xmlns="http://www.w3.org/2000/svg" xmlns:v="https://svgstorm.com"
viewBox = "0 0 244 240"
width="244"
height="240">
<g fill="#FAFDFD" fill-opacity="1.00" stroke="None">
<path d="
M 0.00 240.00 
L 244.00 240.00
L 244.00 0.00
L 0.00 0.00
L 0.00 240.00
M 128.00 4.00 
C 136.36 4.00 143.87 6.11 152.00 7.00
C 142.31 16.78 127.77 25.93 119.25 38.25 C 110.73 50.57 106.12 41.72 94.00 44.00
C 88.75 44.00 83.22 44.51 78.00 44.00
C 76.35 43.84 74.65 44.12 73.00 44.00
C 72.84 41.36 69.98 39.38 68.00 38.00
C 72.69 28.21 78.02 21.76 85.25 13.25 C 92.48 4.74 106.55 3.80 118.00 4.00
C 121.14 3.70 124.92 3.70 128.00 4.00
M 72.00 18.00 
C 66.00 28.70 59.02 34.61 50.75 42.75 C 42.48 50.89 34.97 57.53 23.00 62.00
C 32.40 42.91 49.99 26.48 69.00 17.00
C 70.82 15.72 71.22 12.22 75.00 14.00
C 74.76 15.62 74.24 18.31 72.00 18.00
M 200.00 42.00 
C 200.67 48.93 200.83 57.12 200.00 64.00
C 199.77 75.65 196.69 93.81 186.75 83.25 C 176.82 72.69 171.79 70.76 161.30 63.70 C 150.82 56.63 141.61 53.52 130.00 50.00
C 134.41 40.81 143.03 33.96 150.75 26.75 C 158.47 19.55 169.30 10.30 178.23 18.77 C 187.16 27.24 202.43 26.83 200.00 42.00
M 237.00 104.00 
C 237.47 106.33 238.00 109.06 238.00 112.00
C 238.00 137.99 232.46 163.68 217.00 184.00
C 218.47 174.98 218.47 165.03 217.00 156.00
C 216.66 154.09 216.19 151.47 216.00 149.00
C 215.35 140.54 214.70 131.53 210.02 123.98 C 205.35 116.42 212.46 106.29 207.68 98.32 C 202.90 90.36 206.30 83.25 208.00 74.00 C 209.70 64.75 209.70 53.99 211.00 45.00
C 224.91 61.95 233.59 82.42 237.00 104.00
M 87.00 52.00 
C 89.33 52.00 91.67 52.00 94.00 52.00
C 99.32 52.00 109.33 51.12 105.00 58.00
C 91.29 79.79 80.00 105.33 80.00 132.00
C 80.00 137.31 80.59 143.47 79.00 148.00
C 78.58 149.19 79.32 150.78 79.00 152.00
C 65.08 150.71 64.89 136.30 59.68 124.32 C 54.47 112.34 55.46 95.55 55.78 81.78 C 56.10 68.01 65.22 61.40 74.00 52.00
C 77.81 49.71 83.32 51.65 87.00 52.00
M 125.00 59.00 
C 134.20 62.73 141.57 66.47 150.74 71.26 C 159.91 76.04 163.26 81.15 172.75 87.25 C 182.23 93.36 178.06 103.71 180.00 113.00
C 174.04 119.40 168.99 124.90 162.25 131.25 C 155.51 137.60 147.79 140.49 139.92 145.92 C 132.06 151.35 123.42 153.10 114.32 157.32 C 105.22 161.54 96.86 159.80 89.00 153.00
C 91.30 121.20 101.96 91.07 118.00 64.00
C 120.22 58.74 121.52 57.59 125.00 59.00
M 47.00 90.00 
C 46.87 96.30 46.76 102.71 47.00 109.00
C 47.34 118.00 52.53 130.15 53.93 138.07 C 55.32 146.00 66.53 157.07 62.00 164.00
C 59.33 168.08 57.36 164.69 55.00 164.00
C 36.89 161.59 10.16 155.35 9.00 134.00
C 8.63 131.75 8.00 128.89 8.00 126.00
C 8.00 111.20 8.74 88.96 15.78 76.78 C 22.81 64.59 40.95 56.97 52.00 63.00
C 49.71 71.81 47.18 80.61 47.00 90.00
M 186.00 215.00 
C 182.52 216.32 178.13 216.00 174.00 216.00
C 169.13 216.00 165.90 215.06 162.00 214.00
C 139.37 210.55 118.16 199.96 101.00 184.00
C 103.22 169.79 122.00 171.42 132.68 165.68 C 143.35 159.93 154.45 154.57 163.70 146.70 C 172.95 138.82 181.29 130.91 188.00 121.00
C 191.38 122.32 195.27 122.00 199.00 122.00
C 207.69 138.89 207.92 156.26 211.00 175.00 C 214.08 193.74 201.52 206.61 186.00 215.00
M 83.00 193.00 
C 85.80 206.68 90.99 219.84 98.00 232.00
C 61.31 224.63 28.77 195.12 16.00 160.00
C 27.90 164.47 40.16 171.55 53.07 172.93 C 65.99 174.30 67.43 193.86 83.00 193.00
M 158.00 220.00 
C 161.29 220.07 175.91 218.88 174.00 222.00
C 171.97 225.32 163.55 225.93 159.92 227.92 C 156.30 229.92 148.32 231.31 144.00 232.00
C 142.10 232.59 139.80 234.00 136.00 234.00
C 124.75 234.00 106.36 237.97 102.23 225.77 C 98.10 213.57 93.88 205.54 92.00 193.00
C 111.59 206.44 133.33 219.00 158.00 220.00 Z"/>
</g>
<g fill="#AAC0D0" fill-opacity="1.00" stroke="None">
<path d="
M 118.00 4.00 
C 121.33 4.00 124.67 4.00 128.00 4.00
C 124.92 3.70 121.14 3.70 118.00 4.00 Z"/>
</g>
<g fill="#3092D3" fill-opacity="1.00" stroke="None">
<path d="
M 78.00 44.00 
C 82.66 44.00 89.28 43.54 94.00 44.00
C 106.12 41.72 110.73 50.57 119.25 38.25 C 127.77 25.93 142.31 16.78 152.00 7.00
C 143.87 6.11 136.36 4.00 128.00 4.00
C 124.67 4.00 121.33 4.00 118.00 4.00
C 106.55 3.80 92.48 4.74 85.25 13.25 C 78.02 21.76 72.69 28.21 68.00 38.00
C 69.98 39.38 72.84 41.36 73.00 44.00
C 74.65 44.12 76.35 43.84 78.00 44.00 Z"/>
</g>
<g fill="#B8E2F5" fill-opacity="1.00" stroke="None">
<path d="
M 69.00 17.00 
C 70.66 16.25 72.10 15.02 74.00 15.00
C 73.70 16.25 72.17 16.71 72.00 18.00
C 74.24 18.31 74.76 15.62 75.00 14.00
C 71.22 12.22 70.82 15.72 69.00 17.00 Z"/>
</g>
<g fill="#3093D4" fill-opacity="1.00" stroke="None">
<path d="
M 200.00 64.00 
C 200.15 56.67 200.00 49.33 200.00 42.00
C 202.43 26.83 187.16 27.24 178.23 18.77 C 169.30 10.30 158.47 19.55 150.75 26.75 C 143.03 33.96 134.41 40.81 130.00 50.00
C 141.61 53.52 150.82 56.63 161.30 63.70 C 171.79 70.76 176.82 72.69 186.75 83.25 C 196.69 93.81 199.77 75.65 200.00 64.00 Z"/>
</g>
<g fill="#3492D0" fill-opacity="1.00" stroke="None">
<path d="
M 69.00 17.00 
C 49.99 26.48 32.40 42.91 23.00 62.00
C 34.97 57.53 42.48 50.89 50.75 42.75 C 59.02 34.61 66.00 28.70 72.00 18.00
C 72.17 16.71 73.70 16.25 74.00 15.00
C 72.10 15.02 70.66 16.25 69.00 17.00 Z"/>
</g>
<g fill="#A5C9DF" fill-opacity="1.00" stroke="None">
<path d="
M 200.00 64.00 
C 200.83 57.12 200.67 48.93 200.00 42.00
C 200.00 49.33 200.15 56.67 200.00 64.00 Z"/>
</g>
<g fill="#A6ECFF" fill-opacity="1.00" stroke="None">
<path d="
M 78.00 44.00 
C 83.22 44.51 88.75 44.00 94.00 44.00
C 89.28 43.54 82.66 44.00 78.00 44.00 Z"/>
</g>
<g fill="#3093D3" fill-opacity="1.00" stroke="None">
<path d="
M 216.00 149.00 
C 216.30 150.84 216.78 153.60 217.00 156.00
C 218.47 165.03 218.47 174.98 217.00 184.00
C 232.46 163.68 238.00 137.99 238.00 112.00
C 237.81 110.03 237.23 106.57 237.00 104.00
C 233.59 82.42 224.91 61.95 211.00 45.00
C 209.70 53.99 209.70 64.75 208.00 74.00 C 206.30 83.25 202.90 90.36 207.68 98.32 C 212.46 106.29 205.35 116.42 210.02 123.98 C 214.70 131.53 215.35 140.54 216.00 149.00 Z"/>
</g>
<g fill="#AEC3D0" fill-opacity="1.00" stroke="None">
<path d="
M 74.00 52.00 
C 77.16 50.73 83.54 52.00 87.00 52.00
C 83.32 51.65 77.81 49.71 74.00 52.00 Z"/>
</g>
<g fill="#3093D3" fill-opacity="1.00" stroke="None">
<path d="
M 79.00 148.00 
C 79.97 143.31 79.59 136.20 80.00 132.00
C 80.00 105.33 91.29 79.79 105.00 58.00
C 105.45 56.75 105.78 55.37 106.00 54.00
C 102.04 53.59 97.28 53.58 94.00 52.00
C 91.67 52.00 89.33 52.00 87.00 52.00
C 83.54 52.00 77.16 50.73 74.00 52.00
C 65.22 61.40 56.10 68.01 55.78 81.78 C 55.46 95.55 54.47 112.34 59.68 124.32 C 64.89 136.30 65.08 150.71 79.00 152.00
C 79.32 150.78 78.58 149.19 79.00 148.00 Z"/>
</g>
<g fill="#BAE3F2" fill-opacity="1.00" stroke="None">
<path d="
M 105.00 58.00 
C 109.33 51.12 99.32 52.00 94.00 52.00
C 97.28 53.58 102.04 53.59 106.00 54.00
C 105.78 55.37 105.45 56.75 105.00 58.00 Z"/>
</g>
<g fill="#D3F6FE" fill-opacity="1.00" stroke="None">
<path d="
M 118.00 64.00 
C 119.75 61.20 121.41 58.91 125.00 59.00
C 121.52 57.59 120.22 58.74 118.00 64.00 Z"/>
</g>
<g fill="#2F93D4" fill-opacity="1.00" stroke="None">
<path d="
M 8.00 126.00 
C 8.20 128.03 8.86 131.34 9.00 134.00
C 10.16 155.35 36.89 161.59 55.00 164.00
C 57.14 164.28 60.01 166.10 62.00 164.00
C 66.53 157.07 55.32 146.00 53.93 138.07 C 52.53 130.15 47.34 118.00 47.00 109.00
C 46.14 102.95 46.28 95.97 47.00 90.00
C 47.18 80.61 49.71 71.81 52.00 63.00
C 40.95 56.97 22.81 64.59 15.78 76.78 C 8.74 88.96 8.00 111.20 8.00 126.00 Z"/>
</g>
<g fill="#3093D4" fill-opacity="1.00" stroke="None">
<path d="
M 118.00 64.00 
C 101.96 91.07 91.30 121.20 89.00 153.00
C 96.86 159.80 105.22 161.54 114.32 157.32 C 123.42 153.10 132.06 151.35 139.92 145.92 C 147.79 140.49 155.51 137.60 162.25 131.25 C 168.99 124.90 174.04 119.40 180.00 113.00
C 178.06 103.71 182.23 93.36 172.75 87.25 C 163.26 81.15 159.91 76.04 150.74 71.26 C 141.57 66.47 134.20 62.73 125.00 59.00
C 121.41 58.91 119.75 61.20 118.00 64.00 Z"/>
</g>
<g fill="#A0C4E1" fill-opacity="1.00" stroke="None">
<path d="
M 47.00 109.00 
C 46.76 102.71 46.87 96.30 47.00 90.00
C 46.28 95.97 46.14 102.95 47.00 109.00 Z"/>
</g>
<g fill="#96DCF3" fill-opacity="1.00" stroke="None">
<path d="
M 238.00 112.00 
C 238.00 109.06 237.47 106.33 237.00 104.00
C 237.23 106.57 237.81 110.03 238.00 112.00 Z"/>
</g>
<g fill="#3193D4" fill-opacity="1.00" stroke="None">
<path d="
M 162.00 214.00 
C 165.95 214.60 169.75 215.00 174.00 215.00
C 177.68 215.00 182.43 215.82 186.00 215.00
C 201.52 206.61 214.08 193.74 211.00 175.00 C 207.92 156.26 207.69 138.89 199.00 122.00
C 195.27 122.00 191.38 122.32 188.00 121.00
C 181.29 130.91 172.95 138.82 163.70 146.70 C 154.45 154.57 143.35 159.93 132.68 165.68 C 122.00 171.42 103.22 169.79 101.00 184.00
C 118.16 199.96 139.37 210.55 162.00 214.00 Z"/>
</g>
<g fill="#7BD1F9" fill-opacity="1.00" stroke="None">
<path d="
M 9.00 134.00 
C 8.86 131.34 8.20 128.03 8.00 126.00
C 8.00 128.89 8.63 131.75 9.00 134.00 Z"/>
</g>
<g fill="#D3F8FF" fill-opacity="1.00" stroke="None">
<path d="
M 79.00 148.00 
C 80.59 143.47 80.00 137.31 80.00 132.00
C 79.59 136.20 79.97 143.31 79.00 148.00 Z"/>
</g>
<g fill="#CAF5FF" fill-opacity="1.00" stroke="None">
<path d="
M 217.00 156.00 
C 216.78 153.60 216.30 150.84 216.00 149.00
C 216.19 151.47 216.66 154.09 217.00 156.00 Z"/>
</g>
<g fill="#3193D3" fill-opacity="1.00" stroke="None">
<path d="
M 83.00 193.00 
C 67.43 193.86 65.99 174.30 53.07 172.93 C 40.16 171.55 27.90 164.47 16.00 160.00
C 28.77 195.12 61.31 224.63 98.00 232.00
C 90.99 219.84 85.80 206.68 83.00 193.00 Z"/>
</g>
<g fill="#C4EEF5" fill-opacity="1.00" stroke="None">
<path d="
M 62.00 164.00 
C 60.01 166.10 57.14 164.28 55.00 164.00
C 57.36 164.69 59.33 168.08 62.00 164.00 Z"/>
</g>
<g fill="#3292D2" fill-opacity="1.00" stroke="None">
<path d="
M 136.00 234.00 
C 138.18 233.69 141.37 232.42 144.00 232.00
C 148.32 231.31 156.30 229.92 159.92 227.92 C 163.55 225.93 171.97 225.32 174.00 222.00
C 169.53 220.87 162.48 220.54 158.00 220.00
C 133.33 219.00 111.59 206.44 92.00 193.00
C 93.88 205.54 98.10 213.57 102.23 225.77 C 106.36 237.97 124.75 234.00 136.00 234.00 Z"/>
</g>
<g fill="#D3F9FD" fill-opacity="1.00" stroke="None">
<path d="
M 174.00 216.00 
C 173.96 216.00 174.00 215.00 174.00 215.00
C 169.75 215.00 165.95 214.60 162.00 214.00
C 165.90 215.06 169.13 216.00 174.00 216.00 Z"/>
</g>
<g fill="#81D5FF" fill-opacity="1.00" stroke="None">
<path d="
M 174.00 216.00 
C 178.13 216.00 182.52 216.32 186.00 215.00
C 182.43 215.82 177.68 215.00 174.00 215.00
C 174.00 215.00 173.96 216.00 174.00 216.00 Z"/>
</g>
<g fill="#CBF8FE" fill-opacity="1.00" stroke="None">
<path d="
M 174.00 222.00 
C 175.91 218.88 161.29 220.07 158.00 220.00
C 162.48 220.54 169.53 220.87 174.00 222.00 Z"/>
</g>
<g fill="#C5EDF7" fill-opacity="1.00" stroke="None">
<path d="
M 136.00 234.00 
C 139.80 234.00 142.10 232.59 144.00 232.00
C 141.37 232.42 138.18 233.69 136.00 234.00 Z"/>
</g>
</svg>